<?xml version="1.0" encoding="utf-8"?>
<!-- Generator: Adobe Illustrator 23.0.2, SVG Export Plug-In . SVG Version: 6.00 Build 0)  -->
<svg version="1.1" id="Capa_1" xmlns="http://www.w3.org/2000/svg" xmlns:xlink="http://www.w3.org/1999/xlink" x="0px" y="0px"
	 viewBox="0 0 195 25" style="enable-background:new 0 0 195 25;" xml:space="preserve">
<style type="text/css">
	.st0{fill:#C4131B;}
	.st1{opacity:0.8;fill:#C4131B;}
	.st2{fill:#8D3B88;}
	.st3{opacity:0.8;fill:#8D3B88;}
	.st4{fill:#1F934C;}
	.st5{opacity:0.8;fill:#1F934C;}
	.st6{fill:#9DBF3B;}
	.st7{fill:#579A8D;}
</style>
<g>
	<path class="st7" d="M18.11,2.74c0.29,0,0.42,0.13,0.42,0.39v3.41c0,0.26-0.13,0.39-0.42,0.39h-5.23v15.76
		c0,0.29-0.13,0.42-0.39,0.42H8.46c-0.26,0-0.39-0.13-0.39-0.42V6.92h-5.2c-0.26,0-0.39-0.13-0.39-0.39V3.13
		c0-0.26,0.13-0.39,0.39-0.39H18.11z"/>
	<path class="st7" d="M34.54,4.09c1.12,0.99,1.66,2.76,1.66,5.33c0,3.85-1.04,5.49-3.85,6.11l4.42,7.05
		c0.21,0.29,0.08,0.52-0.31,0.52h-4.06c-0.55,0-0.75-0.16-1.04-0.57l-4.24-6.68h-1.66v6.84c0,0.34-0.08,0.42-0.39,0.42h-4.03
		c-0.31,0-0.39-0.08-0.39-0.42V3.26c0-0.23,0.13-0.34,0.39-0.36c2.55-0.21,5.1-0.31,7.62-0.31C31.47,2.58,33.42,3.08,34.54,4.09z
		 M25.46,6.77v5.49h2.68c1.25,0,2.08-0.18,2.52-0.52c0.44-0.36,0.65-1.09,0.65-2.16c0-2.16-0.7-2.81-3.17-2.81H25.46z"/>
	<path class="st7" d="M50.16,3.1c0.52,0.34,0.99,1.2,1.38,2.63l4.63,16.95c0.05,0.29-0.05,0.42-0.34,0.42h-3.98
		c-0.18,0-0.29-0.13-0.36-0.42l-1.4-5.25h-6.53l-1.46,5.25c-0.08,0.29-0.18,0.42-0.34,0.42h-3.98c-0.29,0-0.39-0.13-0.34-0.42
		L42.1,5.73c0.39-1.43,0.86-2.29,1.38-2.63c0.52-0.34,1.64-0.52,3.33-0.52C48.53,2.58,49.64,2.76,50.16,3.1z M46.37,7l-1.74,6.5
		h4.39L47.25,7c-0.1-0.34-0.16-0.42-0.47-0.42C46.5,6.59,46.47,6.66,46.37,7z"/>
	<path class="st7" d="M79.1,2.71c0.18,0,0.29,0.16,0.31,0.44l1.98,19.5c0.03,0.29-0.1,0.44-0.39,0.44h-4.03
		c-0.23,0-0.36-0.16-0.39-0.44l-1.12-11.34l-4.19,10.74c-0.13,0.29-0.31,0.42-0.57,0.42h-2.78c-0.29,0-0.47-0.13-0.57-0.42
		l-4.19-10.74l-1.14,11.34c-0.03,0.29-0.16,0.44-0.39,0.44H57.6c-0.29,0-0.42-0.16-0.39-0.44l1.98-19.5
		c0.03-0.29,0.16-0.42,0.34-0.42h3.69c0.96,0,1.35,0.23,1.66,1.04L69.3,15.4l4.42-11.65c0.34-0.83,0.73-1.04,1.66-1.04H79.1z"/>
	<path class="st7" d="M88.46,2.74c0.26,0,0.39,0.13,0.39,0.42v19.5c0,0.29-0.13,0.44-0.39,0.44h-4.03c-0.26,0-0.39-0.16-0.39-0.44
		V3.15c0-0.29,0.13-0.42,0.39-0.42H88.46z"/>
	<path class="st7" d="M106.61,2.74c0.29,0,0.42,0.13,0.42,0.39v3.41c0,0.26-0.13,0.39-0.42,0.39h-5.23v15.76
		c0,0.29-0.13,0.42-0.39,0.42h-4.03c-0.26,0-0.39-0.13-0.39-0.42V6.92h-5.2c-0.26,0-0.39-0.13-0.39-0.39V3.13
		c0-0.26,0.13-0.39,0.39-0.39H106.61z"/>
	<path class="st7" d="M123.02,2.74c0.29,0,0.42,0.13,0.42,0.39v3.41c0,0.26-0.13,0.39-0.42,0.39h-9.05v4.06h8.29
		c0.29,0,0.42,0.13,0.42,0.39v3.22c0,0.26-0.13,0.39-0.42,0.39h-8.29v3.93h9.05c0.29,0,0.42,0.13,0.42,0.39v3.41
		c0,0.26-0.13,0.39-0.42,0.39h-13.47c-0.26,0-0.39-0.13-0.39-0.42V3.15c0-0.29,0.13-0.42,0.39-0.42H123.02z"/>
	<path class="st7" d="M138.82,3.18c0.34,0.13,0.52,0.31,0.52,0.55v2.52c0,0.34-0.18,0.52-0.52,0.52h-6.32
		c-1.27,0-1.92,0.47-1.92,1.38v0.31c0,0.75,0.44,1.3,1.33,1.64l4.5,1.66c1.38,0.52,2.39,1.17,2.99,1.95
		c0.6,0.75,0.91,1.98,0.91,3.61V18c0,3.67-2.7,5.23-7.8,5.23c-1.95,0-4.11-0.21-6.47-0.65c-0.34-0.08-0.49-0.29-0.49-0.65v-2.34
		c0-0.36,0.18-0.55,0.55-0.55h7.51c1.22,0,1.85-0.42,1.85-1.27v-0.26c0-0.94-0.49-1.33-1.82-1.82l-4.5-1.64
		c-2.31-0.83-3.41-2.29-3.41-5.69V7.78c0-3.72,2.34-5.2,7.51-5.2C135.08,2.58,136.95,2.79,138.82,3.18z"/>
	<path class="st7" d="M162.56,5.03c1.33,1.61,1.98,4.26,1.98,7.93c0,3.64-0.65,6.27-1.98,7.88c-1.33,1.59-3.54,2.39-6.63,2.39
		c-2.6,0-5.17-0.1-7.72-0.31c-0.26-0.03-0.39-0.13-0.39-0.31V3.26c0-0.23,0.13-0.34,0.39-0.36c2.55-0.21,5.12-0.31,7.72-0.31
		C159.03,2.58,161.24,3.39,162.56,5.03z M152.63,6.77v12.27h3.3c2.73,0,3.74-1.74,3.74-6.08c0-4.37-1.04-6.19-3.82-6.19H152.63z"/>
	<path class="st7" d="M170.75,20.83c0,1.48-0.96,2.39-2.6,2.39c-1.69,0-2.65-0.86-2.65-2.39c0-1.48,0.96-2.37,2.65-2.37
		C169.79,18.47,170.75,19.35,170.75,20.83z"/>
	<path class="st7" d="M186.53,3.05c0.49,0.13,0.68,0.31,0.68,0.81v2.52c0,0.26-0.13,0.39-0.39,0.39h-5.54
		c-1.53,0-2.52,0.42-3.02,1.25c-0.47,0.83-0.7,2.44-0.7,4.86c0,2.42,0.23,4.03,0.7,4.89c0.49,0.86,1.48,1.27,3.02,1.27h5.54
		c0.26,0,0.39,0.13,0.39,0.39v2.52c0,0.44-0.23,0.7-0.68,0.81c-1.27,0.31-3.04,0.47-5.25,0.47c-3.46,0-5.49-0.55-6.84-2.18
		c-1.33-1.66-1.74-4.03-1.74-8.16c0-4.03,0.57-6.73,1.74-8.16c1.17-1.43,3.46-2.13,6.84-2.13C183.39,2.58,185.16,2.74,186.53,3.05z"
		/>
	<path class="st7" d="M194.12,20.83c0,1.48-0.96,2.39-2.6,2.39c-1.69,0-2.65-0.86-2.65-2.39c0-1.48,0.96-2.37,2.65-2.37
		C193.16,18.47,194.12,19.35,194.12,20.83z"/>
</g>
</svg>
