<?xml version="1.0" encoding="utf-8"?>
<!-- Generator: Adobe Illustrator 23.0.2, SVG Export Plug-In . SVG Version: 6.00 Build 0)  -->
<svg version="1.1" id="Capa_1" xmlns="http://www.w3.org/2000/svg" xmlns:xlink="http://www.w3.org/1999/xlink" x="0px" y="0px"
	 viewBox="0 0 177 25" style="enable-background:new 0 0 177 25;" xml:space="preserve">
<style type="text/css">
	.st0{fill:#C4131B;}
	.st1{opacity:0.8;fill:#C4131B;}
	.st2{fill:#8D3B88;}
	.st3{opacity:0.8;fill:#8D3B88;}
	.st4{fill:#1F934C;}
	.st5{opacity:0.8;fill:#1F934C;}
	.st6{fill:#9DBF3B;}
	.st7{fill:#579A8D;}
</style>
<g>
	<path class="st7" d="M16.25,6.09c0.25,0,0.37,0.11,0.37,0.34v3.01c0,0.23-0.12,0.35-0.37,0.35h-4.62v13.93
		c0,0.25-0.12,0.37-0.35,0.37H7.72c-0.23,0-0.35-0.11-0.35-0.37V9.79h-4.6c-0.23,0-0.34-0.12-0.34-0.35V6.44
		c0-0.23,0.11-0.34,0.34-0.34H16.25z"/>
	<path class="st7" d="M30.79,7.29c0.99,0.87,1.47,2.44,1.47,4.71c0,3.4-0.92,4.85-3.4,5.4l3.91,6.23c0.18,0.25,0.07,0.46-0.28,0.46
		H28.9c-0.48,0-0.67-0.14-0.92-0.51l-3.75-5.91h-1.47v6.05c0,0.3-0.07,0.37-0.34,0.37h-3.56c-0.28,0-0.34-0.07-0.34-0.37V6.55
		c0-0.21,0.12-0.3,0.34-0.32c2.25-0.18,4.51-0.28,6.74-0.28C28.08,5.95,29.8,6.39,30.79,7.29z M22.76,9.66v4.85h2.37
		c1.1,0,1.84-0.16,2.23-0.46c0.39-0.32,0.57-0.97,0.57-1.91c0-1.91-0.62-2.48-2.8-2.48H22.76z"/>
	<path class="st7" d="M44.61,6.41c0.46,0.3,0.87,1.06,1.22,2.32l4.09,14.99c0.05,0.25-0.05,0.37-0.3,0.37h-3.52
		c-0.16,0-0.25-0.11-0.32-0.37l-1.24-4.64h-5.77l-1.29,4.64c-0.07,0.25-0.16,0.37-0.3,0.37h-3.52c-0.25,0-0.34-0.11-0.3-0.37
		l4.12-14.99c0.34-1.26,0.76-2.02,1.22-2.32c0.46-0.3,1.45-0.46,2.94-0.46C43.16,5.95,44.15,6.11,44.61,6.41z M41.25,9.86
		l-1.54,5.75h3.89l-1.56-5.75c-0.09-0.3-0.14-0.37-0.41-0.37C41.37,9.49,41.35,9.56,41.25,9.86z M45.85,0.89
		c0.16,0,0.23,0.07,0.23,0.23v0.16c0,0.11-0.05,0.21-0.12,0.28l-4.42,3.61c-0.09,0.07-0.21,0.07-0.32,0l-1.26-0.71
		c-0.12-0.07-0.14-0.18-0.07-0.32l1.68-3.1c0.05-0.09,0.14-0.14,0.28-0.14H45.85z"/>
	<path class="st7" d="M70.21,6.07c0.16,0,0.25,0.14,0.28,0.39l1.75,17.25c0.02,0.25-0.09,0.39-0.34,0.39h-3.56
		c-0.21,0-0.32-0.14-0.34-0.39l-0.99-10.03l-3.7,9.5c-0.12,0.25-0.28,0.37-0.51,0.37h-2.46c-0.25,0-0.41-0.12-0.51-0.37l-3.7-9.5
		L55.1,23.71c-0.02,0.25-0.14,0.39-0.34,0.39h-3.56c-0.25,0-0.37-0.14-0.34-0.39l1.75-17.25c0.02-0.25,0.14-0.37,0.3-0.37h3.27
		c0.85,0,1.2,0.21,1.47,0.92l3.91,10.28l3.91-10.3c0.3-0.74,0.64-0.92,1.47-0.92H70.21z"/>
	<path class="st7" d="M78.49,6.09c0.23,0,0.34,0.11,0.34,0.37v17.25c0,0.25-0.11,0.39-0.34,0.39h-3.56c-0.23,0-0.34-0.14-0.34-0.39
		V6.46c0-0.25,0.12-0.37,0.34-0.37H78.49z"/>
	<path class="st7" d="M94.54,6.09c0.25,0,0.37,0.11,0.37,0.34v3.01c0,0.23-0.12,0.35-0.37,0.35h-4.62v13.93
		c0,0.25-0.12,0.37-0.35,0.37h-3.56c-0.23,0-0.35-0.11-0.35-0.37V9.79h-4.6c-0.23,0-0.34-0.12-0.34-0.35V6.44
		c0-0.23,0.11-0.34,0.34-0.34H94.54z"/>
	<path class="st7" d="M109.06,6.09c0.25,0,0.37,0.11,0.37,0.34v3.01c0,0.23-0.11,0.35-0.37,0.35h-8v3.59h7.34
		c0.25,0,0.37,0.12,0.37,0.35v2.85c0,0.23-0.11,0.35-0.37,0.35h-7.34v3.47h8c0.25,0,0.37,0.11,0.37,0.34v3.01
		c0,0.23-0.11,0.34-0.37,0.34H97.14c-0.23,0-0.34-0.11-0.34-0.37V6.46c0-0.25,0.12-0.37,0.34-0.37H109.06z"/>
	<path class="st7" d="M123.04,6.48c0.3,0.12,0.46,0.28,0.46,0.48V9.2c0,0.3-0.16,0.46-0.46,0.46h-5.59c-1.13,0-1.7,0.41-1.7,1.22
		v0.28c0,0.67,0.39,1.15,1.17,1.45l3.98,1.47c1.22,0.46,2.12,1.03,2.64,1.72c0.53,0.67,0.8,1.75,0.8,3.2v0.6
		c0,3.24-2.39,4.62-6.9,4.62c-1.72,0-3.63-0.18-5.73-0.57c-0.3-0.07-0.44-0.25-0.44-0.57v-2.07c0-0.32,0.16-0.48,0.48-0.48h6.65
		c1.08,0,1.63-0.37,1.63-1.13v-0.23c0-0.83-0.44-1.17-1.61-1.61l-3.98-1.45c-2.05-0.74-3.01-2.02-3.01-5.04v-0.51
		c0-3.29,2.07-4.6,6.65-4.6C119.73,5.95,121.38,6.14,123.04,6.48z"/>
	<path class="st7" d="M144.04,8.12c1.17,1.43,1.75,3.77,1.75,7.01c0,3.22-0.58,5.54-1.75,6.97c-1.17,1.4-3.13,2.12-5.86,2.12
		c-2.3,0-4.58-0.09-6.83-0.28c-0.23-0.02-0.34-0.11-0.34-0.28V6.55c0-0.21,0.12-0.3,0.34-0.32c2.25-0.18,4.53-0.28,6.83-0.28
		C140.91,5.95,142.87,6.67,144.04,8.12z M135.25,9.66v10.85h2.92c2.41,0,3.31-1.54,3.31-5.38c0-3.86-0.92-5.47-3.38-5.47H135.25z"/>
	<path class="st7" d="M151.29,22.1c0,1.31-0.85,2.12-2.3,2.12c-1.49,0-2.34-0.76-2.34-2.12c0-1.31,0.85-2.09,2.34-2.09
		C150.43,20,151.29,20.79,151.29,22.1z"/>
	<path class="st7" d="M165.25,6.37c0.44,0.11,0.6,0.28,0.6,0.71v2.23c0,0.23-0.12,0.34-0.34,0.34h-4.9c-1.36,0-2.23,0.37-2.67,1.1
		c-0.41,0.74-0.62,2.16-0.62,4.3s0.21,3.56,0.62,4.32c0.44,0.76,1.31,1.13,2.67,1.13h4.9c0.23,0,0.34,0.12,0.34,0.35v2.23
		c0,0.39-0.21,0.62-0.6,0.71c-1.13,0.28-2.69,0.41-4.65,0.41c-3.06,0-4.85-0.48-6.05-1.93c-1.17-1.47-1.54-3.56-1.54-7.22
		c0-3.56,0.51-5.96,1.54-7.22c1.03-1.26,3.06-1.89,6.05-1.89C162.46,5.95,164.03,6.09,165.25,6.37z"/>
	<path class="st7" d="M171.96,22.1c0,1.31-0.85,2.12-2.3,2.12c-1.49,0-2.35-0.76-2.35-2.12c0-1.31,0.85-2.09,2.35-2.09
		C171.11,20,171.96,20.79,171.96,22.1z"/>
</g>
</svg>
